<?xml version="1.0" encoding="iso-8859-1"?>
<!-- Generator: Adobe Illustrator 20.1.0, SVG Export Plug-In . SVG Version: 6.00 Build 0)  -->
<svg xmlns="http://www.w3.org/2000/svg" xmlns:xlink="http://www.w3.org/1999/xlink" version="1.1" id="&#1057;&#1083;&#1086;&#1081;_1" x="0px" y="0px" viewBox="0 0 64 64" style="enable-background:new 0 0 64 64;" xml:space="preserve">
<linearGradient id="SVGID_1__49459" gradientUnits="userSpaceOnUse" x1="21" y1="35.625" x2="21" y2="40.639" spreadMethod="reflect">
	<stop offset="0" style="stop-color:#6DC7FF"/>
	<stop offset="1" style="stop-color:#E6ABFF"/>
</linearGradient>
<path style="fill:url(#SVGID_1__49459);" d="M25,39c0,0.552-0.448,1-1,1h-6c-0.552,0-1-0.448-1-1v-2c0-0.552,0.448-1,1-1h6  c0.552,0,1,0.448,1,1V39z"/>
<linearGradient id="SVGID_2__49459" gradientUnits="userSpaceOnUse" x1="45" y1="42.5" x2="45" y2="48.5052" spreadMethod="reflect">
	<stop offset="0" style="stop-color:#6DC7FF"/>
	<stop offset="1" style="stop-color:#E6ABFF"/>
</linearGradient>
<path style="fill:url(#SVGID_2__49459);" d="M51.71,48c-0.86-2.89-3.53-5-6.71-5s-5.85,2.11-6.71,5H51.71z"/>
<linearGradient id="SVGID_3__49459" gradientUnits="userSpaceOnUse" x1="29.5" y1="7.6667" x2="29.5" y2="57.0551" spreadMethod="reflect">
	<stop offset="0" style="stop-color:#1A6DFF"/>
	<stop offset="1" style="stop-color:#C822FF"/>
</linearGradient>
<path style="fill:url(#SVGID_3__49459);" d="M13,11c0-0.551,0.448-1,1-1h32c0.552,0,1,0.449,1,1v11h2V12h1c0.552,0,1,0.449,1,1v9h2v-9  c0-1.654-1.346-3-3-3h-1.184C48.402,8.838,47.302,8,46,8H14c-1.654,0-3,1.346-3,3v35H6v4c0,3.309,2.691,6,6,6h17v-2H12  c-2.206,0-4-1.794-4-4v-2h21v-2H13V11z"/>
<linearGradient id="SVGID_4__49459" gradientUnits="userSpaceOnUse" x1="30" y1="7.6667" x2="30" y2="57.0551" spreadMethod="reflect">
	<stop offset="0" style="stop-color:#1A6DFF"/>
	<stop offset="1" style="stop-color:#C822FF"/>
</linearGradient>
<rect x="17" y="16" style="fill:url(#SVGID_4__49459);" width="26" height="2"/>
<linearGradient id="SVGID_5__49459" gradientUnits="userSpaceOnUse" x1="30" y1="7.6667" x2="30" y2="57.0551" spreadMethod="reflect">
	<stop offset="0" style="stop-color:#1A6DFF"/>
	<stop offset="1" style="stop-color:#C822FF"/>
</linearGradient>
<rect x="17" y="20" style="fill:url(#SVGID_5__49459);" width="26" height="2"/>
<linearGradient id="SVGID_6__49459" gradientUnits="userSpaceOnUse" x1="23.5" y1="7.6667" x2="23.5" y2="57.0551" spreadMethod="reflect">
	<stop offset="0" style="stop-color:#1A6DFF"/>
	<stop offset="1" style="stop-color:#C822FF"/>
</linearGradient>
<rect x="17" y="24" style="fill:url(#SVGID_6__49459);" width="13" height="2"/>
<linearGradient id="SVGID_7__49459" gradientUnits="userSpaceOnUse" x1="23.5" y1="7.6667" x2="23.5" y2="57.0551" spreadMethod="reflect">
	<stop offset="0" style="stop-color:#1A6DFF"/>
	<stop offset="1" style="stop-color:#C822FF"/>
</linearGradient>
<rect x="17" y="28" style="fill:url(#SVGID_7__49459);" width="13" height="2"/>
<linearGradient id="SVGID_8__49459" gradientUnits="userSpaceOnUse" x1="45" y1="7.6667" x2="45" y2="57.0551" spreadMethod="reflect">
	<stop offset="0" style="stop-color:#1A6DFF"/>
	<stop offset="1" style="stop-color:#C822FF"/>
</linearGradient>
<path style="fill:url(#SVGID_8__49459);" d="M56,30c1.103,0,2-0.897,2-2v-2c0-1.103-0.897-2-2-2H34c-1.103,0-2,0.897-2,2v2  c0,1.103,0.897,2,2,2c0,4.439,2.649,8.264,6.444,10C36.649,41.736,34,45.561,34,50c-1.103,0-2,0.897-2,2v2c0,1.103,0.897,2,2,2h22  c1.103,0,2-0.897,2-2v-2c0-1.103-0.897-2-2-2c0-4.439-2.649-8.264-6.444-10C53.351,38.264,56,34.439,56,30z M34,26h22v2H34V26z   M56,54H34v-2h22V54z M54,50H36c0-4.962,4.037-9,9-9S54,45.038,54,50z M45,39c-4.963,0-9-4.038-9-9h18C54,34.962,49.963,39,45,39z"/>
<linearGradient id="SVGID_9__49459" gradientUnits="userSpaceOnUse" x1="21" y1="7.6667" x2="21" y2="57.0551" spreadMethod="reflect">
	<stop offset="0" style="stop-color:#1A6DFF"/>
	<stop offset="1" style="stop-color:#C822FF"/>
</linearGradient>
<rect x="17" y="32" style="fill:url(#SVGID_9__49459);" width="8" height="2"/>
</svg>
